<svg xmlns="http://www.w3.org/2000/svg" width="300" height="300" fill="none" viewBox="0 0 300 300">
  <path fill="#EEE" fill-rule="evenodd" d="M149.6 85c-8.084 0-14.909 1.28-19.987 3.819-4.195 2.092-7.313 5.281-8.288 9.181H115.8c-5.748 0-10.4 4.652-10.4 10.4v62.4h-8.287A2.6 2.6 0 0 0 95 173.4v13c0 1.432 1.168 2.6 2.6 2.6h43.957l-29.9 21.287a2.616 2.616 0 1 0 3.087 4.225L147 191.519V212.4a2.617 2.617 0 0 0 1.29 2.285 2.625 2.625 0 0 0 2.62 0 2.615 2.615 0 0 0 1.29-2.285v-20.881l32.257 22.993a2.616 2.616 0 1 0 3.087-4.225L157.644 189H201.6c1.432 0 2.6-1.168 2.6-2.6v-13c0-1.432-1.168-2.6-2.6-2.6h-7.8v-62.4c0-5.748-4.651-10.4-10.4-10.4h-5.525c-.975-3.9-4.093-7.09-8.287-9.181C164.51 86.279 157.685 85 149.6 85Zm0 5.2c7.516 0 13.691 1.32 17.713 3.331 2.681 1.34 4.326 2.813 5.119 4.469h-45.663c.792-1.656 2.438-3.128 5.119-4.469 4.022-2.01 10.197-3.331 17.712-3.331Zm-33.8 13h67.6c3.098 0 5.2 2.102 5.2 5.2v62.4h-78v-62.4c0-3.098 2.103-5.2 5.2-5.2Zm33.8 5.2c-15.722 0-28.6 12.878-28.6 28.6 0 15.722 12.878 28.6 28.6 28.6 15.722 0 28.6-12.878 28.6-28.6 0-15.722-12.878-28.6-28.6-28.6Zm0 5.2c12.878 0 23.4 10.522 23.4 23.4 0 12.878-10.522 23.4-23.4 23.4-12.878 0-23.4-10.522-23.4-23.4 0-12.878 10.522-23.4 23.4-23.4Zm0 5.2c-10.024 0-18.2 8.176-18.2 18.2s8.176 18.2 18.2 18.2c10.025 0 18.2-8.176 18.2-18.2s-8.175-18.2-18.2-18.2Zm0 5.2c7.211 0 13 5.789 13 13s-5.789 13-13 13-13-5.789-13-13 5.789-13 13-13Zm-49.4 52H199v7.8h-49.156a2.696 2.696 0 0 0-.812 0H100.2V176Z" clip-rule="evenodd"/>
  <path fill="#00ADB5" fill-rule="evenodd" d="M300 110h-58.32C233.1 90.37 218.405 74.025 200 63.38V0h30c38.66 0 70 31.34 70 70v40Zm0 80v110h-30c-36.485 0-66.45-27.915-69.705-63.55 18.265-10.65 32.85-26.925 41.385-46.45H300ZM0 190h58.32c8.58 19.63 23.275 35.975 41.68 46.62V300H70c-38.66 0-70-31.34-70-70v-40Zm0-80V0h30c36.485 0 66.45 27.915 69.705 63.55C81.44 74.2 66.855 90.475 58.32 110H0Zm100-46.62V0h30c36.36 0 66.25 27.725 69.675 63.19C185.04 54.8 168.075 50 150 50c-18.215 0-35.29 4.87-50 13.38Zm100 173.24V300h-30c-36.36 0-66.25-27.725-69.675-63.19C114.96 245.2 131.925 250 150 250c18.215 0 35.29-4.87 50-13.38Z" clip-rule="evenodd"/>
</svg>
