<svg xmlns="http://www.w3.org/2000/svg" width="110" height="131" fill="none" viewBox="0 0 110 131">
  <path fill="#EEE" fill-rule="evenodd" d="M54.6 0c-8.084 0-14.909 1.28-19.987 3.819C30.418 5.91 27.3 9.1 26.325 13H20.8c-5.748 0-10.4 4.652-10.4 10.4v62.4H2.113A2.6 2.6 0 0 0 0 88.4v13c0 1.432 1.168 2.6 2.6 2.6h43.957l-29.9 21.287a2.616 2.616 0 1 0 3.087 4.225L52 106.519V127.4a2.615 2.615 0 0 0 1.29 2.285 2.626 2.626 0 0 0 2.62 0 2.615 2.615 0 0 0 1.29-2.285v-20.881l32.257 22.993a2.616 2.616 0 1 0 3.088-4.225L62.644 104H106.6c1.432 0 2.6-1.168 2.6-2.6v-13c0-1.432-1.168-2.6-2.6-2.6h-7.8V23.4c0-5.748-4.651-10.4-10.4-10.4h-5.525c-.975-3.9-4.093-7.09-8.287-9.181C69.51 1.279 62.685 0 54.6 0Zm0 5.2c7.516 0 13.691 1.32 17.713 3.331 2.681 1.34 4.326 2.813 5.119 4.469H31.769c.792-1.655 2.438-3.128 5.119-4.469C40.91 6.521 47.085 5.2 54.6 5.2Zm-33.8 13h67.6c3.098 0 5.2 2.102 5.2 5.2v62.4h-78V23.4c0-3.098 2.103-5.2 5.2-5.2Zm33.8 5.2C38.88 23.4 26 36.278 26 52c0 15.722 12.879 28.6 28.6 28.6 15.722 0 28.6-12.878 28.6-28.6 0-15.722-12.878-28.6-28.6-28.6Zm0 5.2C67.478 28.6 78 39.122 78 52c0 12.878-10.522 23.4-23.4 23.4-12.878 0-23.4-10.522-23.4-23.4 0-12.878 10.522-23.4 23.4-23.4Zm0 5.2c-10.024 0-18.2 8.176-18.2 18.2s8.176 18.2 18.2 18.2c10.025 0 18.2-8.176 18.2-18.2s-8.175-18.2-18.2-18.2Zm0 5.2c7.211 0 13 5.79 13 13s-5.789 13-13 13c-7.21 0-13-5.79-13-13s5.79-13 13-13ZM5.2 91H104v7.8H54.845a2.725 2.725 0 0 0-.813 0H5.2V91Z" clip-rule="evenodd"/>
</svg>
